<svg width="24" height="24" viewBox="0 0 24 24" fill="none" xmlns="http://www.w3.org/2000/svg">
<path fill-rule="evenodd" clip-rule="evenodd" d="M9.80133 14.749C10.389 15.1513 11.0757 15.3847 11.7868 15.4238C12.4979 15.4629 13.2061 15.3063 13.8343 14.9708C14.4625 14.6354 14.9866 14.134 15.3497 13.5214C15.7127 12.9087 15.9008 12.2082 15.8934 11.496C15.8918 10.7076 15.6577 9.93708 15.2203 9.28101L14.1564 10.354C14.349 10.7272 14.4432 11.1434 14.4299 11.5632C14.4167 11.9829 14.2964 12.3924 14.0806 12.7527C13.8647 13.113 13.5604 13.4121 13.1965 13.6218C12.8327 13.8316 12.4213 13.9449 12.0013 13.9511C11.6071 13.9534 11.2183 13.8586 10.8693 13.6751L9.80133 14.749ZM18.4274 6.04902C19.9504 7.49995 21.1475 9.25818 21.9393 11.207C21.9785 11.2989 21.9987 11.3977 21.9987 11.4976C21.9987 11.5974 21.9785 11.6962 21.9393 11.788C19.8513 16.688 16.1393 19.6251 11.9973 19.6251H11.9874C10.0873 19.6092 8.24041 18.9959 6.70831 17.872L4.81537 19.7821C4.74812 19.851 4.66767 19.9057 4.57886 19.943C4.49005 19.9803 4.39466 19.9993 4.29834 19.999C4.20186 20.0004 4.10612 19.9819 4.01715 19.9446C3.92818 19.9072 3.84794 19.8519 3.78137 19.7821C3.66259 19.6615 3.58897 19.5037 3.57294 19.3352C3.55691 19.1667 3.59944 18.9979 3.69336 18.8571L3.72235 18.8181L18.1544 4.25703C18.1731 4.23972 18.1892 4.2199 18.2023 4.19807C18.2213 4.18077 18.2378 4.16089 18.2513 4.13905L19.1683 3.21302C19.2369 3.14506 19.3181 3.09131 19.4075 3.05476C19.4968 3.0182 19.5925 2.99959 19.689 3.00001C19.7856 3.00042 19.8811 3.01987 19.9701 3.0572C20.0591 3.09452 20.1399 3.14899 20.2078 3.21754C20.2758 3.28609 20.3296 3.36733 20.3661 3.45667C20.4027 3.54601 20.4213 3.6417 20.4209 3.73823C20.4205 3.83475 20.401 3.93028 20.3637 4.01929C20.3264 4.10831 20.2719 4.18907 20.2034 4.25703L18.4274 6.04902ZM8.10132 11.504C8.10407 11.7548 8.12718 12.005 8.17035 12.252L4.55933 15.894C3.52239 14.6624 2.67937 13.2798 2.05933 11.794C2.02018 11.7022 2 11.6034 2 11.5035C2 11.4037 2.02018 11.3049 2.05933 11.213C4.14733 6.31302 7.85937 3.38605 11.9924 3.38605H12.0013C13.392 3.38899 14.7623 3.71955 16.0013 4.35102L12.7424 7.63904C12.4973 7.59582 12.2492 7.57271 12.0004 7.57001C10.9619 7.57557 9.96813 7.99297 9.23712 8.73054C8.50611 9.46811 8.09759 10.4656 8.10132 11.504Z" fill="white"/>
</svg>
