<svg width="243" height="109" viewBox="0 0 243 109" fill="none" xmlns="http://www.w3.org/2000/svg">
<path d="M81.536 72.7212H98.526V79.3812H73.296V29.1212H81.536V72.7212Z" fill="#0A9CC4"/>
<path d="M113.646 29.1212V79.3812H105.396V29.1212H113.646Z" fill="#0A9CC4"/>
<path d="M149.286 79.3812L129.836 56.8912V79.3812H121.596V29.1212H129.836V52.0512L149.356 29.1212H159.696L137.866 54.2912L160.056 79.3812H149.286Z" fill="#0A9CC4"/>
<path d="M170.146 76.5912C166.257 74.4431 163.033 71.2675 160.826 67.4112C158.57 63.3593 157.386 58.7986 157.386 54.1612C157.386 49.5237 158.57 44.963 160.826 40.9112C163.043 37.073 166.265 33.9128 170.146 31.7712C174.119 29.612 178.569 28.4809 183.091 28.4809C187.613 28.4809 192.063 29.612 196.036 31.7712C199.91 33.911 203.123 37.0723 205.326 40.9112C207.556 44.9713 208.726 49.5288 208.726 54.1612C208.726 58.7936 207.556 63.351 205.326 67.4112C203.133 71.2679 199.919 74.4446 196.036 76.5912C192.063 78.7504 187.613 79.8815 183.091 79.8815C178.569 79.8815 174.119 78.7504 170.146 76.5912ZM191.946 70.4512C194.565 68.9128 196.687 66.6528 198.056 63.9412C199.511 60.8863 200.267 57.545 200.267 54.1612C200.267 50.7773 199.511 47.4361 198.056 44.3812C196.684 41.6921 194.562 39.4586 191.946 37.9512C189.214 36.4807 186.159 35.711 183.056 35.711C179.953 35.711 176.898 36.4807 174.166 37.9512C171.546 39.4531 169.422 41.6881 168.056 44.3812C166.601 47.4361 165.845 50.7773 165.845 54.1612C165.845 57.545 166.601 60.8863 168.056 63.9412C169.42 66.6568 171.542 68.9182 174.166 70.4512C176.89 71.9471 179.948 72.7314 183.056 72.7314C186.164 72.7314 189.222 71.9471 191.946 70.4512Z" fill="#0A9CC4"/>
<path d="M225.056 72.7212H242.046V79.3812H216.816V29.1212H225.056V72.7212Z" fill="#0A9CC4"/>
<path d="M56.066 104.421C53.606 105.161 44.516 106.271 30.976 89.0212C18.456 73.0812 12.866 50.8012 17.366 34.8312C19.896 25.8312 25.446 19.3512 33.426 15.9812C52.216 8.04117 65.476 19.3412 70.606 24.9812H75.086C71.406 20.4112 55.406 3.07117 31.956 12.9812C22.956 16.7712 16.746 24.0412 13.956 33.9812C9.12601 51.1112 14.826 73.9812 28.136 90.9812C42.676 109.511 53.296 108.751 57.136 107.571C59.1609 107.029 60.9566 105.848 62.2558 104.202C63.5549 102.557 64.2881 100.537 64.346 98.4412H60.806C60.7635 99.8217 60.2762 101.152 59.4166 102.233C58.5571 103.314 57.3714 104.088 56.036 104.441" fill="#0A9CC4"/>
<path d="M31.326 7.64118C31.326 7.64118 13.706 7.64117 8.21603 30.4612C7.63603 18.6212 16.306 5.90118 31.326 7.64118Z" fill="#0A9CC4"/>
<path d="M28.186 0.74116C28.186 0.74116 7.44602 0.741165 0.98602 27.5912C0.30602 13.6612 10.506 -1.29884 28.186 0.74116Z" fill="#0A9CC4"/>
<path d="M67.226 57.8312C65.558 55.5973 63.1079 54.0758 60.366 53.5712C62.8002 52.7677 64.9545 51.2864 66.576 49.3012C68.1692 47.2356 68.9898 44.678 68.896 42.0712C68.9211 39.7544 68.2675 37.481 67.016 35.5312C65.6412 33.4766 63.709 31.8566 61.446 30.8612C58.6684 29.6449 55.6573 29.0543 52.626 29.1312H33.506V42.7012H41.746V35.8512H51.946C54.2147 35.7137 56.4572 36.395 58.266 37.7712C59.0269 38.423 59.628 39.2406 60.0233 40.1611C60.4186 41.0817 60.5974 42.0807 60.546 43.0812C60.6075 44.0843 60.4333 45.088 60.0374 46.0118C59.6415 46.9355 59.0348 47.7538 58.266 48.4012C56.4364 49.7286 54.2023 50.379 51.946 50.2412H48.506V56.9612H52.506C54.9354 56.8432 57.3245 57.6147 59.226 59.1312C60.0629 59.8535 60.7252 60.756 61.1634 61.7709C61.6016 62.7858 61.8042 63.8868 61.756 64.9912C61.8125 66.0501 61.6276 67.1081 61.2153 68.0851C60.803 69.0622 60.174 69.9328 59.376 70.6312C57.4938 72.0659 55.1583 72.7758 52.796 72.6312H41.706V65.0112H33.506V79.3612H53.606C56.6177 79.4254 59.6061 78.8209 62.356 77.5912C64.6923 76.5501 66.6859 74.8685 68.106 72.7412C69.5312 70.4726 70.216 67.8172 70.0655 65.1423C69.915 62.4675 68.9367 59.9055 67.266 57.8112" fill="#0A9CC4"/>
<path d="M41.706 40.8012H33.466V67.1412H41.706V40.8012Z" fill="#0A9CC4"/>
<path d="M50.206 50.2412H36.976V56.9612H50.206V50.2412Z" fill="#0A9CC4"/>
<path d="M235.686 87.3112H241.936V89.4512H237.846V91.5012H241.936V93.6112H237.846V96.6112H241.936V98.7512H235.686V87.3112ZM228.686 91.7912H229.376C229.875 91.8349 230.376 91.7415 230.826 91.5212C230.963 91.4143 231.071 91.2753 231.141 91.1165C231.21 90.9577 231.24 90.7841 231.226 90.6112C231.229 90.3758 231.159 90.1453 231.026 89.9512C230.894 89.7673 230.709 89.6279 230.496 89.5512C230.101 89.4498 229.693 89.4093 229.286 89.4312H228.686V91.7912ZM226.556 87.3112H228.876C229.789 87.2591 230.704 87.3744 231.576 87.6512C232.117 87.8769 232.573 88.2692 232.876 88.7712C233.214 89.3351 233.384 89.9839 233.366 90.6412C233.391 91.3094 233.202 91.968 232.826 92.5212C232.417 93.0664 231.847 93.4688 231.196 93.6712L233.906 98.7612H231.506L228.926 93.9112H228.706V98.7612H226.536L226.556 87.3112ZM219.216 90.3112L217.666 94.3112H220.766L219.216 90.3112ZM218.116 87.3112H220.316L224.726 98.7612H222.506L221.606 96.4012H216.916L216.006 98.7612H213.736L218.116 87.3112ZM212.706 89.3112L211.176 90.7612C210.739 90.257 210.2 89.8505 209.595 89.5679C208.991 89.2854 208.333 89.1332 207.666 89.1212C207.154 89.1131 206.645 89.2079 206.17 89.3999C205.695 89.5919 205.264 89.8772 204.901 90.239C204.538 90.6008 204.252 91.0316 204.059 91.5061C203.865 91.9805 203.769 92.4889 203.776 93.0012C203.765 93.7001 203.937 94.3897 204.276 95.0012C204.602 95.5936 205.091 96.0796 205.686 96.4012C206.298 96.7397 206.987 96.9121 207.686 96.9012C208.285 96.913 208.879 96.7935 209.426 96.5512C210.072 96.2237 210.658 95.7873 211.156 95.2612L212.636 96.8112C211.948 97.5271 211.135 98.1101 210.236 98.5312C209.421 98.8633 208.546 99.0266 207.666 99.0112C206.859 99.0431 206.055 98.9095 205.301 98.6189C204.548 98.3283 203.862 97.8867 203.286 97.3212C202.72 96.7529 202.278 96.0744 201.985 95.3278C201.693 94.5812 201.557 93.7825 201.586 92.9812C201.567 91.9141 201.833 90.8613 202.356 89.9312C202.889 89.0303 203.656 88.2907 204.576 87.7912C205.528 87.2547 206.603 86.9756 207.696 86.9812C208.639 86.9818 209.57 87.1865 210.426 87.5812C211.303 87.9844 212.081 88.5749 212.706 89.3112ZM195.806 89.3112L194.276 90.7612C193.839 90.257 193.3 89.8505 192.695 89.5679C192.091 89.2854 191.433 89.1332 190.766 89.1212C190.254 89.1131 189.745 89.2079 189.27 89.3999C188.795 89.5919 188.364 89.8772 188.001 90.239C187.638 90.6008 187.352 91.0316 187.159 91.5061C186.965 91.9805 186.869 92.4889 186.876 93.0012C186.865 93.7001 187.037 94.3897 187.376 95.0012C187.701 95.5908 188.186 96.0763 188.776 96.4012C189.355 96.7022 189.993 96.8717 190.644 96.8976C191.296 96.9235 191.945 96.8052 192.546 96.5512C193.191 96.221 193.776 95.785 194.276 95.2612L195.756 96.8112C195.065 97.5227 194.252 98.1052 193.356 98.5312C192.537 98.8644 191.66 99.0277 190.776 99.0112C189.971 99.0417 189.168 98.9075 188.417 98.6169C187.665 98.3263 186.981 97.8854 186.406 97.3212C185.84 96.7529 185.398 96.0744 185.105 95.3278C184.813 94.5812 184.677 93.7825 184.706 92.9812C184.682 91.9136 184.949 90.8596 185.476 89.9312C186.009 89.0303 186.776 88.2907 187.696 87.7912C188.647 87.2535 189.723 86.9742 190.816 86.9812C191.759 86.9818 192.69 87.1865 193.546 87.5812C194.416 87.9869 195.187 88.5772 195.806 89.3112ZM180.656 87.3112H182.826V98.7612H180.656V87.3112ZM169.036 87.3112H171.096L176.036 94.8512V87.3112H178.206V98.7612H176.116L171.196 91.3112V98.8212H169.036V87.3112ZM164.396 87.3112H166.566V98.7612H164.396V87.3112ZM157.506 87.3112H159.676V96.6912H162.886V98.7612H157.506V87.3112ZM155.616 89.3112L154.086 90.7612C153.649 90.257 153.11 89.8505 152.505 89.5679C151.901 89.2854 151.243 89.1332 150.576 89.1212C150.063 89.1131 149.554 89.2079 149.079 89.3997C148.603 89.5916 148.171 89.8768 147.807 90.2384C147.444 90.6001 147.157 91.0308 146.962 91.5053C146.768 91.9798 146.671 92.4885 146.676 93.0012C146.67 93.6996 146.842 94.388 147.176 95.0012C147.508 95.5893 147.996 96.0739 148.586 96.4012C149.199 96.7355 149.888 96.9076 150.586 96.9012C151.184 96.911 151.778 96.7916 152.326 96.5512C152.971 96.221 153.556 95.785 154.056 95.2612L155.536 96.8112C154.845 97.5227 154.032 98.1052 153.136 98.5312C152.317 98.8644 151.44 99.0277 150.556 99.0112C149.751 99.0417 148.948 98.9075 148.197 98.6169C147.445 98.3263 146.761 97.8854 146.186 97.3212C145.62 96.7529 145.178 96.0744 144.885 95.3278C144.593 94.5812 144.457 93.7825 144.486 92.9812C144.462 91.9136 144.729 90.8596 145.256 89.9312C145.789 89.0303 146.556 88.2907 147.476 87.7912C148.424 87.2547 149.496 86.9755 150.586 86.9812C151.529 86.9795 152.461 87.1843 153.316 87.5812C154.203 87.9818 154.992 88.5724 155.626 89.3112H155.616ZM138.336 88.8612L136.736 90.3112C136.561 89.9921 136.313 89.7189 136.012 89.5139C135.712 89.3088 135.367 89.1777 135.006 89.1312C134.753 89.1208 134.504 89.2025 134.306 89.3612C134.222 89.4202 134.153 89.4979 134.105 89.5881C134.056 89.6784 134.029 89.7787 134.026 89.8812C134.03 90.0785 134.101 90.2687 134.226 90.4212C134.72 90.9527 135.255 91.4442 135.826 91.8912C136.656 92.5912 137.166 93.0312 137.336 93.2112C137.725 93.579 138.047 94.0123 138.286 94.4912C138.468 94.9107 138.56 95.3638 138.556 95.8212C138.566 96.2585 138.481 96.6927 138.309 97.0946C138.136 97.4966 137.88 97.8568 137.556 98.1512C136.859 98.7803 135.944 99.1106 135.006 99.0712C134.252 99.0869 133.511 98.8781 132.876 98.4712C132.2 97.9919 131.662 97.3436 131.316 96.5912L133.156 95.4812C133.706 96.4812 134.346 97.0012 135.066 97.0012C135.41 97.0121 135.745 96.8944 136.006 96.6712C136.123 96.5811 136.219 96.4663 136.286 96.3349C136.354 96.2035 136.391 96.0588 136.396 95.9112C136.384 95.6271 136.282 95.3542 136.106 95.1312C135.716 94.6964 135.288 94.2981 134.826 93.9412C133.92 93.2675 133.106 92.4774 132.406 91.5912C132.067 91.1064 131.879 90.5324 131.866 89.9412C131.867 89.5633 131.948 89.1899 132.103 88.8453C132.258 88.5007 132.484 88.1926 132.766 87.9412C133.37 87.3702 134.175 87.0611 135.006 87.0812C135.573 87.0831 136.132 87.2202 136.636 87.4812C137.291 87.8373 137.872 88.316 138.346 88.8912L138.336 88.8612ZM122.046 87.3112H124.236V94.7212C124.209 95.1771 124.263 95.6342 124.396 96.0712C124.511 96.3378 124.707 96.5616 124.956 96.7112C125.24 96.87 125.561 96.9494 125.886 96.9412C126.238 96.9547 126.585 96.8643 126.886 96.6812C127.148 96.5234 127.352 96.2847 127.466 96.0012C127.598 95.4923 127.652 94.9663 127.626 94.4412V87.3112H129.806V94.1412C129.84 94.9426 129.776 95.7452 129.616 96.5312C129.455 97.0199 129.194 97.4698 128.85 97.852C128.506 98.2343 128.085 98.5405 127.616 98.7512C127.085 98.9614 126.517 99.0633 125.946 99.0512C125.186 99.0702 124.437 98.8725 123.786 98.4812C123.211 98.1454 122.751 97.6434 122.466 97.0412C122.141 96.1107 122.005 95.1248 122.066 94.1412L122.046 87.3112ZM114.316 87.3112H120.646V89.4612H118.556V98.7612H116.336V89.4612H114.336L114.316 87.3112ZM110.806 87.3112H112.976V98.7612H110.806V87.3112ZM99.186 87.3112H101.246L106.186 94.8512V87.3112H108.356V98.7612H106.266L101.356 91.3112V98.8212H99.186V87.3112ZM87.386 87.3112H89.506L94.436 94.8512V87.3112H96.606V98.7612H94.506L89.556 91.3112V98.8212H87.386V87.3112ZM82.746 87.3112H84.916V98.7612H82.746V87.3112ZM75.086 87.3112H81.426V89.4612H79.336V98.7612H77.116V89.4612H75.116L75.086 87.3112Z" fill="white"/>
</svg>
